<svg width="44" height="28" viewBox="0 0 44 28" fill="none" xmlns="http://www.w3.org/2000/svg">
<path d="M30 12C33.32 12 35.98 9.32 35.98 6C35.98 2.68 33.32 0 30 0C26.68 0 24 2.68 24 6C24 9.32 26.68 12 30 12ZM14 12C17.32 12 19.98 9.32 19.98 6C19.98 2.68 17.32 0 14 0C10.68 0 8 2.68 8 6C8 9.32 10.68 12 14 12ZM14 16C9.34 16 0 18.34 0 23V28H28V23C28 18.34 18.66 16 14 16ZM30 16C29.42 16 28.76 16.04 28.06 16.1C30.38 17.78 32 20.04 32 23V28H44V23C44 18.34 34.66 16 30 16Z" fill="black" fill-opacity="0.24"/>
</svg>
