<svg width="20" height="20" viewBox="0 0 20 20" fill="none" xmlns="http://www.w3.org/2000/svg">
<path d="M17.43 10.98C17.47 10.66 17.5 10.34 17.5 10C17.5 9.66 17.47 9.34 17.43 9.02L19.54 7.37C19.73 7.22 19.78 6.95 19.66 6.73L17.66 3.27C17.54 3.05 17.27 2.97 17.05 3.05L14.56 4.05C14.04 3.65 13.48 3.32 12.87 3.07L12.49 0.42C12.46 0.18 12.25 0 12 0H7.99996C7.74996 0 7.53996 0.18 7.50996 0.42L7.12996 3.07C6.51996 3.32 5.95996 3.66 5.43996 4.05L2.94996 3.05C2.71996 2.96 2.45996 3.05 2.33996 3.27L0.339961 6.73C0.209961 6.95 0.269962 7.22 0.459962 7.37L2.56996 9.02C2.52996 9.34 2.49996 9.67 2.49996 10C2.49996 10.33 2.52996 10.66 2.56996 10.98L0.459962 12.63C0.269962 12.78 0.219961 13.05 0.339961 13.27L2.33996 16.73C2.45996 16.95 2.72996 17.03 2.94996 16.95L5.43996 15.95C5.95996 16.35 6.51996 16.68 7.12996 16.93L7.50996 19.58C7.53996 19.82 7.74996 20 7.99996 20H12C12.25 20 12.46 19.82 12.49 19.58L12.87 16.93C13.48 16.68 14.04 16.34 14.56 15.95L17.05 16.95C17.28 17.04 17.54 16.95 17.66 16.73L19.66 13.27C19.78 13.05 19.73 12.78 19.54 12.63L17.43 10.98V10.98ZM9.99996 13.5C8.06996 13.5 6.49996 11.93 6.49996 10C6.49996 8.07 8.06996 6.5 9.99996 6.5C11.93 6.5 13.5 8.07 13.5 10C13.5 11.93 11.93 13.5 9.99996 13.5Z" fill="#FFFF"/>
</svg>
